<svg width="192" height="72" viewBox="0 0 192 72" fill="none" xmlns="http://www.w3.org/2000/svg">
<rect width="192" height="72" fill="#C10000"/>
<path d="M21.44 23.6H30.56C33.3733 23.6 35.7133 24.1667 37.58 25.3C39.46 26.42 40.8733 27.9733 41.82 29.96C42.7667 31.9467 43.24 34.22 43.24 36.78C43.24 39.3533 42.7667 41.6333 41.82 43.62C40.8733 45.6067 39.46 47.1667 37.58 48.3C35.7133 49.4333 33.3733 50 30.56 50H21.44V23.6ZM29.18 30.42V43.18H29.86C30.9667 43.18 31.9 42.9 32.66 42.34C33.42 41.78 34 41.02 34.4 40.06C34.8 39.0867 35 38.0067 35 36.82C35 35.62 34.8 34.54 34.4 33.58C34.0133 32.6067 33.4333 31.84 32.66 31.28C31.9 30.7067 30.9667 30.42 29.86 30.42H29.18ZM52.9438 43.34C53.0104 43.66 53.1771 43.9333 53.4438 44.16C53.7238 44.3733 54.0771 44.54 54.5038 44.66C54.9438 44.78 55.4371 44.84 55.9838 44.84C56.5704 44.84 57.1438 44.8133 57.7038 44.76C58.2638 44.7067 58.7771 44.62 59.2438 44.5C59.7104 44.38 60.0838 44.2267 60.3638 44.04L63.1838 48.98C62.9304 49.14 62.5104 49.34 61.9238 49.58C61.3504 49.8067 60.5371 50.0133 59.4838 50.2C58.4438 50.3867 57.0971 50.48 55.4438 50.48C53.5904 50.48 51.9104 50.1667 50.4038 49.54C48.8971 48.9133 47.6971 47.9467 46.8038 46.64C45.9238 45.32 45.4838 43.6467 45.4838 41.62C45.4838 40.02 45.8504 38.58 46.5838 37.3C47.3171 36.0067 48.3771 34.9867 49.7638 34.24C51.1504 33.48 52.8304 33.1 54.8038 33.1C56.7104 33.1 58.3571 33.42 59.7438 34.06C61.1438 34.7 62.2171 35.6867 62.9638 37.02C63.7238 38.34 64.1038 40.0333 64.1038 42.1C64.1038 42.2067 64.0971 42.42 64.0838 42.74C64.0838 43.0467 64.0704 43.2467 64.0438 43.34H52.9438ZM56.6838 40.12C56.6704 39.68 56.5838 39.3133 56.4238 39.02C56.2771 38.7267 56.0771 38.5133 55.8238 38.38C55.5704 38.2333 55.2704 38.16 54.9238 38.16C54.6171 38.16 54.3238 38.2267 54.0438 38.36C53.7771 38.48 53.5571 38.6867 53.3838 38.98C53.2104 39.26 53.1171 39.64 53.1038 40.12H56.6838ZM74.5506 50H66.6706V22.48H74.5506V50ZM77.8081 50V33.58H85.6681V50H77.8081ZM81.8281 31.76C80.6548 31.76 79.6548 31.3467 78.8281 30.52C78.0148 29.68 77.6081 28.6867 77.6081 27.54C77.6081 26.3933 78.0148 25.4 78.8281 24.56C79.6548 23.7067 80.6548 23.28 81.8281 23.28C82.6015 23.28 83.3081 23.4733 83.9481 23.86C84.5881 24.2467 85.1015 24.76 85.4881 25.4C85.8881 26.04 86.0881 26.7533 86.0881 27.54C86.0881 28.6867 85.6681 29.68 84.8281 30.52C84.0015 31.3467 83.0015 31.76 81.8281 31.76ZM87.6953 33.58H96.1153L99.1153 42.9L102.135 33.58H110.515L103.735 50H94.5153L87.6953 33.58ZM119.077 43.34C119.143 43.66 119.31 43.9333 119.577 44.16C119.857 44.3733 120.21 44.54 120.637 44.66C121.077 44.78 121.57 44.84 122.117 44.84C122.703 44.84 123.277 44.8133 123.837 44.76C124.397 44.7067 124.91 44.62 125.377 44.5C125.843 44.38 126.217 44.2267 126.497 44.04L129.317 48.98C129.063 49.14 128.643 49.34 128.057 49.58C127.483 49.8067 126.67 50.0133 125.617 50.2C124.577 50.3867 123.23 50.48 121.577 50.48C119.723 50.48 118.043 50.1667 116.537 49.54C115.03 48.9133 113.83 47.9467 112.937 46.64C112.057 45.32 111.617 43.6467 111.617 41.62C111.617 40.02 111.983 38.58 112.717 37.3C113.45 36.0067 114.51 34.9867 115.897 34.24C117.283 33.48 118.963 33.1 120.937 33.1C122.843 33.1 124.49 33.42 125.877 34.06C127.277 34.7 128.35 35.6867 129.097 37.02C129.857 38.34 130.237 40.0333 130.237 42.1C130.237 42.2067 130.23 42.42 130.217 42.74C130.217 43.0467 130.203 43.2467 130.177 43.34H119.077ZM122.817 40.12C122.803 39.68 122.717 39.3133 122.557 39.02C122.41 38.7267 122.21 38.5133 121.957 38.38C121.703 38.2333 121.403 38.16 121.057 38.16C120.75 38.16 120.457 38.2267 120.177 38.36C119.91 38.48 119.69 38.6867 119.517 38.98C119.343 39.26 119.25 39.64 119.237 40.12H122.817ZM139.943 50H132.063V33.58H139.943V35.92H139.843C139.99 35.6267 140.263 35.26 140.663 34.82C141.077 34.38 141.65 33.9867 142.383 33.64C143.13 33.28 144.063 33.1 145.183 33.1C145.93 33.1 146.643 33.2267 147.323 33.48C148.003 33.72 148.51 33.96 148.843 34.2L145.823 40.56C145.65 40.2933 145.323 40.0267 144.843 39.76C144.363 39.48 143.763 39.34 143.043 39.34C142.27 39.34 141.657 39.5 141.203 39.82C140.75 40.1267 140.423 40.5133 140.223 40.98C140.037 41.4333 139.943 41.88 139.943 42.32V50ZM149.952 23.6H167.672V30.32H157.692V33.52H167.672V40.02H157.692V43.28H167.672V50H149.952V23.6Z" fill="white"/>
</svg>
