<svg width="192" height="72" viewBox="0 0 192 72" fill="none" xmlns="http://www.w3.org/2000/svg">
<rect width="192" height="72" fill="#101010"/>
<path d="M49.06 36.48C49.06 38.6 48.7 40.5533 47.98 42.34C47.2733 44.1133 46.2667 45.64 44.96 46.92C43.6667 48.2 42.1067 49.2 40.28 49.92C38.4533 50.64 36.4267 51 34.2 51H23.04V21.98H34.2C36.4267 21.98 38.4533 22.34 40.28 23.06C42.1067 23.78 43.6667 24.7867 44.96 26.08C46.2667 27.36 47.2733 28.8867 47.98 30.66C48.7 32.4333 49.06 34.3733 49.06 36.48ZM42.9 36.48C42.9 34.96 42.7 33.5933 42.3 32.38C41.9 31.1667 41.3267 30.14 40.58 29.3C39.8333 28.46 38.92 27.8133 37.84 27.36C36.7733 26.9067 35.56 26.68 34.2 26.68H29.08V46.3H34.2C35.56 46.3 36.7733 46.08 37.84 45.64C38.92 45.1867 39.8333 44.54 40.58 43.7C41.3267 42.8467 41.9 41.8133 42.3 40.6C42.7 39.3867 42.9 38.0133 42.9 36.48ZM65.5553 38.26C65.5553 37.6867 65.4753 37.14 65.3153 36.62C65.1686 36.1 64.9286 35.64 64.5953 35.24C64.262 34.84 63.842 34.5267 63.3353 34.3C62.8286 34.06 62.222 33.94 61.5153 33.94C60.1953 33.94 59.162 34.3133 58.4153 35.06C57.6686 35.8067 57.182 36.8733 56.9553 38.26H65.5553ZM56.8753 41.54C57.0486 43.4733 57.5953 44.8867 58.5153 45.78C59.4486 46.6733 60.662 47.12 62.1553 47.12C62.9153 47.12 63.5686 47.0333 64.1153 46.86C64.6753 46.6733 65.162 46.4733 65.5753 46.26C66.002 46.0333 66.382 45.8333 66.7153 45.66C67.062 45.4733 67.402 45.38 67.7353 45.38C68.162 45.38 68.4953 45.54 68.7353 45.86L70.3353 47.86C69.7486 48.54 69.102 49.1067 68.3953 49.56C67.6886 50 66.9553 50.3533 66.1953 50.62C65.4353 50.8733 64.6686 51.0467 63.8953 51.14C63.122 51.2467 62.3753 51.3 61.6553 51.3C60.2153 51.3 58.8686 51.0667 57.6153 50.6C56.3753 50.12 55.2886 49.42 54.3553 48.5C53.4353 47.5667 52.7086 46.4133 52.1753 45.04C51.642 43.6667 51.3753 42.0733 51.3753 40.26C51.3753 38.86 51.602 37.54 52.0553 36.3C52.522 35.06 53.1886 33.98 54.0553 33.06C54.922 32.14 55.9753 31.4133 57.2153 30.88C58.4553 30.3333 59.8553 30.06 61.4153 30.06C62.7353 30.06 63.9486 30.2733 65.0553 30.7C66.1753 31.1133 67.1353 31.72 67.9353 32.52C68.7486 33.32 69.3753 34.3067 69.8153 35.48C70.2686 36.64 70.4953 37.9667 70.4953 39.46C70.4953 39.8733 70.4753 40.2133 70.4353 40.48C70.3953 40.7467 70.3286 40.96 70.2353 41.12C70.142 41.28 70.0153 41.3933 69.8553 41.46C69.6953 41.5133 69.4886 41.54 69.2353 41.54H56.8753ZM79.4806 21.18V51H73.9606V21.18H79.4806ZM89.7569 30.38V51H84.2369V30.38H89.7569ZM90.4169 24.52C90.4169 24.9867 90.3235 25.42 90.1369 25.82C89.9502 26.22 89.6969 26.5733 89.3769 26.88C89.0702 27.1867 88.7035 27.4267 88.2769 27.6C87.8635 27.7733 87.4169 27.86 86.9369 27.86C86.4835 27.86 86.0502 27.7733 85.6369 27.6C85.2369 27.4267 84.8835 27.1867 84.5769 26.88C84.2702 26.5733 84.0235 26.22 83.8369 25.82C83.6635 25.42 83.5769 24.9867 83.5769 24.52C83.5769 24.0533 83.6635 23.62 83.8369 23.22C84.0235 22.8067 84.2702 22.4467 84.5769 22.14C84.8835 21.8333 85.2369 21.5933 85.6369 21.42C86.0502 21.2467 86.4835 21.16 86.9369 21.16C87.4169 21.16 87.8635 21.2467 88.2769 21.42C88.7035 21.5933 89.0702 21.8333 89.3769 22.14C89.6969 22.4467 89.9502 22.8067 90.1369 23.22C90.3235 23.62 90.4169 24.0533 90.4169 24.52ZM113.448 30.38L105.348 51H100.348L92.2475 30.38H96.8275C97.2275 30.38 97.5608 30.4733 97.8275 30.66C98.0942 30.8467 98.2808 31.0867 98.3875 31.38L101.848 41.58C102.074 42.2733 102.274 42.9533 102.448 43.62C102.621 44.2733 102.774 44.9333 102.908 45.6C103.054 44.9333 103.214 44.2733 103.388 43.62C103.574 42.9533 103.788 42.2733 104.028 41.58L107.608 31.38C107.701 31.0867 107.881 30.8467 108.148 30.66C108.414 30.4733 108.728 30.38 109.088 30.38H113.448ZM128.212 38.26C128.212 37.6867 128.132 37.14 127.972 36.62C127.825 36.1 127.585 35.64 127.252 35.24C126.918 34.84 126.498 34.5267 125.992 34.3C125.485 34.06 124.878 33.94 124.172 33.94C122.852 33.94 121.818 34.3133 121.072 35.06C120.325 35.8067 119.838 36.8733 119.612 38.26H128.212ZM119.532 41.54C119.705 43.4733 120.252 44.8867 121.172 45.78C122.105 46.6733 123.318 47.12 124.812 47.12C125.572 47.12 126.225 47.0333 126.772 46.86C127.332 46.6733 127.818 46.4733 128.232 46.26C128.658 46.0333 129.038 45.8333 129.372 45.66C129.718 45.4733 130.058 45.38 130.392 45.38C130.818 45.38 131.152 45.54 131.392 45.86L132.992 47.86C132.405 48.54 131.758 49.1067 131.052 49.56C130.345 50 129.612 50.3533 128.852 50.62C128.092 50.8733 127.325 51.0467 126.552 51.14C125.778 51.2467 125.032 51.3 124.312 51.3C122.872 51.3 121.525 51.0667 120.272 50.6C119.032 50.12 117.945 49.42 117.012 48.5C116.092 47.5667 115.365 46.4133 114.832 45.04C114.298 43.6667 114.032 42.0733 114.032 40.26C114.032 38.86 114.258 37.54 114.712 36.3C115.178 35.06 115.845 33.98 116.712 33.06C117.578 32.14 118.632 31.4133 119.872 30.88C121.112 30.3333 122.512 30.06 124.072 30.06C125.392 30.06 126.605 30.2733 127.712 30.7C128.832 31.1133 129.792 31.72 130.592 32.52C131.405 33.32 132.032 34.3067 132.472 35.48C132.925 36.64 133.152 37.9667 133.152 39.46C133.152 39.8733 133.132 40.2133 133.092 40.48C133.052 40.7467 132.985 40.96 132.892 41.12C132.798 41.28 132.672 41.3933 132.512 41.46C132.352 41.5133 132.145 41.54 131.892 41.54H119.532ZM141.757 33.78C142.41 32.6067 143.164 31.68 144.017 31C144.87 30.32 145.87 29.98 147.017 29.98C147.95 29.98 148.71 30.2 149.297 30.64L148.937 34.72C148.87 34.9867 148.764 35.1733 148.617 35.28C148.484 35.3733 148.297 35.42 148.057 35.42C147.844 35.42 147.537 35.3933 147.137 35.34C146.737 35.2733 146.364 35.24 146.017 35.24C145.51 35.24 145.057 35.3133 144.657 35.46C144.27 35.6067 143.924 35.8133 143.617 36.08C143.31 36.3467 143.03 36.6733 142.777 37.06C142.537 37.4467 142.31 37.8867 142.097 38.38V51H136.577V30.38H139.837C140.397 30.38 140.784 30.48 140.997 30.68C141.21 30.88 141.364 31.2267 141.457 31.72L141.757 33.78ZM158.103 26.68V34.14H167.783V38.68H158.103V46.3H170.543V51H152.063V21.98H170.543V26.68H158.103Z" fill="white"/>
</svg>
